<svg width="321" height="22" viewBox="0 0 321 22" fill="none" xmlns="http://www.w3.org/2000/svg">
<path d="M0.610795 21V18.4744L8.08807 9.21733V9.10795H0.869318V5.72727H13.1889V8.48153L6.16903 17.5099V17.6193H13.4474V21H0.610795ZM23.1495 21.2983C21.605 21.2983 20.2693 20.9702 19.1424 20.3139C18.0221 19.651 17.1571 18.7296 16.5472 17.5497C15.9374 16.3632 15.6325 14.9877 15.6325 13.4233C15.6325 11.8456 15.9374 10.4669 16.5472 9.28693C17.1571 8.10038 18.0221 7.17898 19.1424 6.52273C20.2693 5.85985 21.605 5.52841 23.1495 5.52841C24.694 5.52841 26.0264 5.85985 27.1467 6.52273C28.2736 7.17898 29.1419 8.10038 29.7518 9.28693C30.3616 10.4669 30.6665 11.8456 30.6665 13.4233C30.6665 14.9877 30.3616 16.3632 29.7518 17.5497C29.1419 18.7296 28.2736 19.651 27.1467 20.3139C26.0264 20.9702 24.694 21.2983 23.1495 21.2983ZM23.1694 18.017C23.872 18.017 24.4587 17.8182 24.9293 17.4205C25.4 17.0161 25.7546 16.4659 25.9933 15.7699C26.2385 15.0739 26.3612 14.2817 26.3612 13.3935C26.3612 12.5052 26.2385 11.7131 25.9933 11.017C25.7546 10.321 25.4 9.77083 24.9293 9.36648C24.4587 8.96212 23.872 8.75994 23.1694 8.75994C22.4601 8.75994 21.8635 8.96212 21.3796 9.36648C20.9023 9.77083 20.5411 10.321 20.2958 11.017C20.0572 11.7131 19.9379 12.5052 19.9379 13.3935C19.9379 14.2817 20.0572 15.0739 20.2958 15.7699C20.5411 16.4659 20.9023 17.0161 21.3796 17.4205C21.8635 17.8182 22.4601 18.017 23.1694 18.017ZM40.381 21.2983C38.81 21.2983 37.4577 20.9801 36.3242 20.3438C35.1973 19.7008 34.329 18.7926 33.7191 17.6193C33.1093 16.4394 32.8043 15.044 32.8043 13.4332C32.8043 11.8622 33.1093 10.4834 33.7191 9.29688C34.329 8.11032 35.1874 7.18561 36.2944 6.52273C37.408 5.85985 38.7139 5.52841 40.212 5.52841C41.2196 5.52841 42.1576 5.69081 43.0259 6.01562C43.9009 6.33381 44.6632 6.81439 45.3129 7.45739C45.9691 8.10038 46.4795 8.90909 46.8441 9.88352C47.2087 10.8513 47.391 11.9848 47.391 13.2841V14.4474H34.4947V11.8224H43.4038C43.4038 11.2126 43.2712 10.6723 43.006 10.2017C42.7409 9.73106 42.373 9.36316 41.9023 9.09801C41.4383 8.82623 40.8981 8.69034 40.2816 8.69034C39.6386 8.69034 39.0685 8.83949 38.5714 9.13778C38.0808 9.42945 37.6964 9.82386 37.418 10.321C37.1396 10.8116 36.997 11.3584 36.9904 11.9616V14.4574C36.9904 15.2131 37.1296 15.866 37.408 16.4162C37.6931 16.9664 38.0941 17.3906 38.6112 17.6889C39.1282 17.9872 39.7414 18.1364 40.4506 18.1364C40.9213 18.1364 41.3522 18.0701 41.7433 17.9375C42.1344 17.8049 42.4691 17.6061 42.7475 17.3409C43.0259 17.0758 43.238 16.7509 43.3839 16.3665L47.3015 16.625C47.1026 17.5663 46.695 18.3883 46.0785 19.0909C45.4686 19.7869 44.6798 20.3305 43.712 20.7216C42.7508 21.1061 41.6405 21.2983 40.381 21.2983ZM53.9933 16.6051L54.0032 11.5241H54.6197L59.5117 5.72727H64.3739L57.8015 13.4034H56.7972L53.9933 16.6051ZM50.1552 21V0.636363H54.391V21H50.1552ZM59.7006 21L55.2063 14.348L58.0302 11.3551L64.6623 21H59.7006ZM70.6879 12.1705V21H66.4521V0.636363H70.5685V8.42188H70.7475C71.0922 7.52036 71.649 6.81439 72.418 6.30398C73.1869 5.78693 74.1514 5.52841 75.3114 5.52841C76.372 5.52841 77.2968 5.76042 78.0856 6.22443C78.881 6.68182 79.4975 7.34138 79.935 8.20312C80.3791 9.05824 80.5979 10.0824 80.5913 11.2756V21H76.3555V12.0312C76.3621 11.09 76.1235 10.3575 75.6396 9.83381C75.1623 9.31013 74.4928 9.0483 73.631 9.0483C73.0543 9.0483 72.5439 9.17093 72.0998 9.41619C71.6623 9.66146 71.3176 10.0194 71.0657 10.4901C70.8204 10.9541 70.6945 11.5142 70.6879 12.1705ZM90.8849 21.2983C89.3139 21.2983 87.9616 20.9801 86.8281 20.3438C85.7012 19.7008 84.8329 18.7926 84.223 17.6193C83.6132 16.4394 83.3082 15.044 83.3082 13.4332C83.3082 11.8622 83.6132 10.4834 84.223 9.29688C84.8329 8.11032 85.6913 7.18561 86.7983 6.52273C87.9119 5.85985 89.2178 5.52841 90.7159 5.52841C91.7235 5.52841 92.6615 5.69081 93.5298 6.01562C94.4048 6.33381 95.1671 6.81439 95.8168 7.45739C96.473 8.10038 96.9834 8.90909 97.348 9.88352C97.7126 10.8513 97.8949 11.9848 97.8949 13.2841V14.4474H84.9986V11.8224H93.9077C93.9077 11.2126 93.7751 10.6723 93.5099 10.2017C93.2448 9.73106 92.8769 9.36316 92.4062 9.09801C91.9422 8.82623 91.402 8.69034 90.7855 8.69034C90.1425 8.69034 89.5724 8.83949 89.0753 9.13778C88.5848 9.42945 88.2003 9.82386 87.9219 10.321C87.6435 10.8116 87.5009 11.3584 87.4943 11.9616V14.4574C87.4943 15.2131 87.6335 15.866 87.9119 16.4162C88.197 16.9664 88.598 17.3906 89.1151 17.6889C89.6321 17.9872 90.2453 18.1364 90.9545 18.1364C91.4252 18.1364 91.8561 18.0701 92.2472 17.9375C92.6383 17.8049 92.973 17.6061 93.2514 17.3409C93.5298 17.0758 93.742 16.7509 93.8878 16.3665L97.8054 16.625C97.6065 17.5663 97.1989 18.3883 96.5824 19.0909C95.9725 19.7869 95.1837 20.3305 94.2159 20.7216C93.2547 21.1061 92.1444 21.2983 90.8849 21.2983ZM108.783 5.72727V8.90909H99.5852V5.72727H108.783ZM101.673 2.06818H105.909V16.3068C105.909 16.6979 105.969 17.0028 106.088 17.2216C106.207 17.4337 106.373 17.5829 106.585 17.669C106.804 17.7552 107.056 17.7983 107.341 17.7983C107.54 17.7983 107.739 17.7817 107.938 17.7486C108.136 17.7088 108.289 17.679 108.395 17.6591L109.061 20.8111C108.849 20.8774 108.551 20.9536 108.166 21.0398C107.782 21.1326 107.314 21.1889 106.764 21.2088C105.743 21.2486 104.848 21.1127 104.08 20.8011C103.317 20.4896 102.724 20.0057 102.3 19.3494C101.875 18.6932 101.667 17.8646 101.673 16.8636V2.06818ZM111.95 21V0.636363H116.185V8.29261H116.315C116.5 7.88163 116.769 7.46401 117.12 7.03977C117.478 6.6089 117.942 6.25095 118.512 5.96591C119.089 5.67424 119.805 5.52841 120.66 5.52841C121.773 5.52841 122.801 5.82008 123.742 6.40341C124.683 6.98011 125.436 7.8518 125.999 9.01847C126.563 10.1785 126.844 11.6335 126.844 13.3835C126.844 15.0871 126.569 16.5256 126.019 17.6989C125.476 18.8655 124.733 19.7505 123.792 20.3537C122.857 20.9503 121.81 21.2486 120.65 21.2486C119.828 21.2486 119.129 21.1127 118.552 20.8409C117.982 20.5691 117.514 20.2277 117.15 19.8168C116.785 19.3991 116.507 18.9782 116.315 18.554H116.126V21H111.95ZM116.096 13.3636C116.096 14.2718 116.222 15.0639 116.474 15.7401C116.726 16.4162 117.09 16.9432 117.567 17.321C118.045 17.6922 118.625 17.8778 119.308 17.8778C119.997 17.8778 120.58 17.6889 121.058 17.3111C121.535 16.9266 121.896 16.3963 122.141 15.7202C122.393 15.0374 122.519 14.2519 122.519 13.3636C122.519 12.482 122.397 11.7064 122.151 11.0369C121.906 10.3674 121.545 9.84375 121.067 9.46591C120.59 9.08807 120.004 8.89915 119.308 8.89915C118.618 8.89915 118.035 9.08144 117.558 9.44602C117.087 9.81061 116.726 10.3277 116.474 10.9972C116.222 11.6667 116.096 12.4555 116.096 13.3636ZM136.631 21.2983C135.06 21.2983 133.708 20.9801 132.574 20.3438C131.447 19.7008 130.579 18.7926 129.969 17.6193C129.359 16.4394 129.054 15.044 129.054 13.4332C129.054 11.8622 129.359 10.4834 129.969 9.29688C130.579 8.11032 131.437 7.18561 132.544 6.52273C133.658 5.85985 134.964 5.52841 136.462 5.52841C137.47 5.52841 138.408 5.69081 139.276 6.01562C140.151 6.33381 140.913 6.81439 141.563 7.45739C142.219 8.10038 142.73 8.90909 143.094 9.88352C143.459 10.8513 143.641 11.9848 143.641 13.2841V14.4474H130.745V11.8224H139.654C139.654 11.2126 139.521 10.6723 139.256 10.2017C138.991 9.73106 138.623 9.36316 138.152 9.09801C137.688 8.82623 137.148 8.69034 136.532 8.69034C135.889 8.69034 135.319 8.83949 134.821 9.13778C134.331 9.42945 133.946 9.82386 133.668 10.321C133.39 10.8116 133.247 11.3584 133.24 11.9616V14.4574C133.24 15.2131 133.38 15.866 133.658 16.4162C133.943 16.9664 134.344 17.3906 134.861 17.6889C135.378 17.9872 135.991 18.1364 136.701 18.1364C137.171 18.1364 137.602 18.0701 137.993 17.9375C138.384 17.8049 138.719 17.6061 138.998 17.3409C139.276 17.0758 139.488 16.7509 139.634 16.3665L143.551 16.625C143.353 17.5663 142.945 18.3883 142.328 19.0909C141.719 19.7869 140.93 20.3305 139.962 20.7216C139.001 21.1061 137.891 21.2983 136.631 21.2983ZM159.113 10.0824L155.235 10.321C155.168 9.98958 155.026 9.69129 154.807 9.42614C154.588 9.15436 154.3 8.93892 153.942 8.77983C153.591 8.61411 153.17 8.53125 152.679 8.53125C152.023 8.53125 151.47 8.67045 151.019 8.94886C150.568 9.22064 150.343 9.58523 150.343 10.0426C150.343 10.4072 150.489 10.7154 150.78 10.9673C151.072 11.2192 151.572 11.4214 152.282 11.5739L155.046 12.1307C156.531 12.4356 157.638 12.9261 158.367 13.6023C159.096 14.2784 159.461 15.1667 159.461 16.267C159.461 17.268 159.166 18.1463 158.576 18.902C157.992 19.6577 157.19 20.2476 156.169 20.6719C155.155 21.0895 153.985 21.2983 152.659 21.2983C150.638 21.2983 149.027 20.8774 147.827 20.0355C146.634 19.187 145.935 18.0336 145.729 16.5753L149.895 16.3565C150.021 16.973 150.326 17.4437 150.81 17.7685C151.294 18.0866 151.914 18.2457 152.669 18.2457C153.412 18.2457 154.008 18.1032 154.459 17.8182C154.917 17.5265 155.149 17.152 155.155 16.6946C155.149 16.3101 154.986 15.9953 154.668 15.75C154.35 15.4981 153.859 15.3059 153.196 15.1733L150.551 14.6463C149.06 14.348 147.95 13.831 147.221 13.0952C146.498 12.3594 146.137 11.4214 146.137 10.2812C146.137 9.30019 146.402 8.45502 146.932 7.74574C147.469 7.03646 148.221 6.48958 149.189 6.10511C150.164 5.72064 151.304 5.52841 152.61 5.52841C154.539 5.52841 156.057 5.93608 157.164 6.75142C158.277 7.56676 158.927 8.67708 159.113 10.0824ZM170.251 5.72727V8.90909H161.054V5.72727H170.251ZM163.142 2.06818H167.378V16.3068C167.378 16.6979 167.438 17.0028 167.557 17.2216C167.676 17.4337 167.842 17.5829 168.054 17.669C168.273 17.7552 168.525 17.7983 168.81 17.7983C169.009 17.7983 169.207 17.7817 169.406 17.7486C169.605 17.7088 169.758 17.679 169.864 17.6591L170.53 20.8111C170.318 20.8774 170.019 20.9536 169.635 21.0398C169.25 21.1326 168.783 21.1889 168.233 21.2088C167.212 21.2486 166.317 21.1127 165.548 20.8011C164.786 20.4896 164.193 20.0057 163.768 19.3494C163.344 18.6932 163.135 17.8646 163.142 16.8636V2.06818ZM179.807 21.2983C178.236 21.2983 176.884 20.9801 175.75 20.3438C174.623 19.7008 173.755 18.7926 173.145 17.6193C172.535 16.4394 172.23 15.044 172.23 13.4332C172.23 11.8622 172.535 10.4834 173.145 9.29688C173.755 8.11032 174.613 7.18561 175.72 6.52273C176.834 5.85985 178.14 5.52841 179.638 5.52841C180.645 5.52841 181.583 5.69081 182.452 6.01562C183.327 6.33381 184.089 6.81439 184.739 7.45739C185.395 8.10038 185.905 8.90909 186.27 9.88352C186.634 10.8513 186.817 11.9848 186.817 13.2841V14.4474H173.92V11.8224H182.83C182.83 11.2126 182.697 10.6723 182.432 10.2017C182.167 9.73106 181.799 9.36316 181.328 9.09801C180.864 8.82623 180.324 8.69034 179.707 8.69034C179.064 8.69034 178.494 8.83949 177.997 9.13778C177.507 9.42945 177.122 9.82386 176.844 10.321C176.565 10.8116 176.423 11.3584 176.416 11.9616V14.4574C176.416 15.2131 176.555 15.866 176.834 16.4162C177.119 16.9664 177.52 17.3906 178.037 17.6889C178.554 17.9872 179.167 18.1364 179.876 18.1364C180.347 18.1364 180.778 18.0701 181.169 17.9375C181.56 17.8049 181.895 17.6061 182.173 17.3409C182.452 17.0758 182.664 16.7509 182.81 16.3665L186.727 16.625C186.528 17.5663 186.121 18.3883 185.504 19.0909C184.894 19.7869 184.106 20.3305 183.138 20.7216C182.177 21.1061 181.066 21.2983 179.807 21.2983ZM196.482 21.2983C194.917 21.2983 193.571 20.9669 192.445 20.304C191.324 19.6345 190.463 18.7064 189.859 17.5199C189.263 16.3333 188.964 14.9678 188.964 13.4233C188.964 11.8589 189.266 10.4867 189.869 9.30682C190.479 8.12026 191.344 7.19555 192.464 6.53267C193.585 5.86316 194.917 5.52841 196.462 5.52841C197.794 5.52841 198.961 5.77036 199.962 6.25426C200.963 6.73816 201.755 7.41761 202.338 8.29261C202.921 9.16761 203.243 10.1951 203.303 11.375H199.305C199.193 10.6127 198.894 9.99953 198.411 9.53551C197.933 9.06487 197.307 8.82955 196.531 8.82955C195.875 8.82955 195.302 9.00852 194.811 9.36648C194.327 9.7178 193.949 10.2315 193.678 10.9077C193.406 11.5838 193.27 12.4025 193.27 13.3636C193.27 14.3381 193.402 15.1667 193.668 15.8494C193.939 16.5322 194.321 17.0526 194.811 17.4105C195.302 17.7685 195.875 17.9474 196.531 17.9474C197.015 17.9474 197.449 17.848 197.834 17.6491C198.225 17.4503 198.546 17.1619 198.798 16.7841C199.057 16.3996 199.226 15.9389 199.305 15.402H203.303C203.236 16.5687 202.918 17.5961 202.348 18.4844C201.785 19.366 201.006 20.0554 200.011 20.5526C199.017 21.0497 197.84 21.2983 196.482 21.2983ZM210.37 21.2884C209.395 21.2884 208.527 21.1193 207.765 20.7812C207.002 20.4366 206.399 19.9295 205.955 19.2599C205.517 18.5838 205.299 17.742 205.299 16.7344C205.299 15.8859 205.454 15.1733 205.766 14.5966C206.078 14.0199 206.502 13.5559 207.039 13.2045C207.576 12.8532 208.185 12.5881 208.868 12.4091C209.558 12.2301 210.28 12.1042 211.036 12.0312C211.924 11.9384 212.64 11.8523 213.184 11.7727C213.727 11.6866 214.122 11.5606 214.367 11.3949C214.612 11.2292 214.735 10.9839 214.735 10.6591V10.5994C214.735 9.9697 214.536 9.48248 214.138 9.13778C213.747 8.79309 213.19 8.62074 212.468 8.62074C211.705 8.62074 211.099 8.78977 210.648 9.12784C210.197 9.45928 209.899 9.87689 209.753 10.3807L205.836 10.0625C206.034 9.13447 206.426 8.33239 207.009 7.65625C207.592 6.97348 208.345 6.44981 209.266 6.08523C210.194 5.71401 211.268 5.52841 212.488 5.52841C213.336 5.52841 214.148 5.62784 214.924 5.8267C215.706 6.02557 216.399 6.33381 217.002 6.75142C217.612 7.16903 218.092 7.70597 218.444 8.36222C218.795 9.01184 218.971 9.79072 218.971 10.6989V21H214.953V18.8821H214.834C214.589 19.3594 214.261 19.7803 213.85 20.1449C213.439 20.5028 212.945 20.7846 212.368 20.9901C211.792 21.1889 211.125 21.2884 210.37 21.2884ZM211.583 18.3651C212.206 18.3651 212.756 18.2424 213.233 17.9972C213.711 17.7453 214.085 17.4072 214.357 16.983C214.629 16.5587 214.765 16.0781 214.765 15.5412V13.9205C214.632 14.0066 214.45 14.0862 214.218 14.1591C213.992 14.2254 213.737 14.2884 213.452 14.348C213.167 14.401 212.882 14.4508 212.597 14.4972C212.312 14.5369 212.053 14.5734 211.821 14.6065C211.324 14.6795 210.89 14.7955 210.519 14.9545C210.148 15.1136 209.859 15.3291 209.654 15.6009C209.448 15.866 209.346 16.1974 209.346 16.5952C209.346 17.1719 209.554 17.6127 209.972 17.9176C210.396 18.2159 210.933 18.3651 211.583 18.3651ZM227.885 21.2486C226.725 21.2486 225.674 20.9503 224.733 20.3537C223.798 19.7505 223.056 18.8655 222.505 17.6989C221.962 16.5256 221.69 15.0871 221.69 13.3835C221.69 11.6335 221.972 10.1785 222.535 9.01847C223.099 7.8518 223.848 6.98011 224.782 6.40341C225.724 5.82008 226.754 5.52841 227.875 5.52841C228.73 5.52841 229.442 5.67424 230.012 5.96591C230.589 6.25095 231.053 6.6089 231.404 7.03977C231.762 7.46401 232.034 7.88163 232.22 8.29261H232.349V0.636363H236.575V21H232.399V18.554H232.22C232.021 18.9782 231.739 19.3991 231.375 19.8168C231.017 20.2277 230.549 20.5691 229.973 20.8409C229.403 21.1127 228.707 21.2486 227.885 21.2486ZM229.227 17.8778C229.91 17.8778 230.486 17.6922 230.957 17.321C231.434 16.9432 231.799 16.4162 232.051 15.7401C232.309 15.0639 232.439 14.2718 232.439 13.3636C232.439 12.4555 232.313 11.6667 232.061 10.9972C231.809 10.3277 231.444 9.81061 230.967 9.44602C230.49 9.08144 229.91 8.89915 229.227 8.89915C228.531 8.89915 227.944 9.08807 227.467 9.46591C226.99 9.84375 226.628 10.3674 226.383 11.0369C226.138 11.7064 226.015 12.482 226.015 13.3636C226.015 14.2519 226.138 15.0374 226.383 15.7202C226.635 16.3963 226.996 16.9266 227.467 17.3111C227.944 17.6889 228.531 17.8778 229.227 17.8778ZM247.018 21.2983C245.447 21.2983 244.094 20.9801 242.961 20.3438C241.834 19.7008 240.966 18.7926 240.356 17.6193C239.746 16.4394 239.441 15.044 239.441 13.4332C239.441 11.8622 239.746 10.4834 240.356 9.29688C240.966 8.11032 241.824 7.18561 242.931 6.52273C244.045 5.85985 245.351 5.52841 246.849 5.52841C247.856 5.52841 248.794 5.69081 249.663 6.01562C250.538 6.33381 251.3 6.81439 251.95 7.45739C252.606 8.10038 253.116 8.90909 253.481 9.88352C253.845 10.8513 254.028 11.9848 254.028 13.2841V14.4474H241.131V11.8224H250.04C250.04 11.2126 249.908 10.6723 249.643 10.2017C249.378 9.73106 249.01 9.36316 248.539 9.09801C248.075 8.82623 247.535 8.69034 246.918 8.69034C246.275 8.69034 245.705 8.83949 245.208 9.13778C244.718 9.42945 244.333 9.82386 244.055 10.321C243.776 10.8116 243.634 11.3584 243.627 11.9616V14.4574C243.627 15.2131 243.766 15.866 244.045 16.4162C244.33 16.9664 244.731 17.3906 245.248 17.6889C245.765 17.9872 246.378 18.1364 247.087 18.1364C247.558 18.1364 247.989 18.0701 248.38 17.9375C248.771 17.8049 249.106 17.6061 249.384 17.3409C249.663 17.0758 249.875 16.7509 250.021 16.3665L253.938 16.625C253.739 17.5663 253.332 18.3883 252.715 19.0909C252.105 19.7869 251.317 20.3305 250.349 20.7216C249.388 21.1061 248.277 21.2983 247.018 21.2983ZM261.147 21.2884C260.173 21.2884 259.304 21.1193 258.542 20.7812C257.78 20.4366 257.176 19.9295 256.732 19.2599C256.295 18.5838 256.076 17.742 256.076 16.7344C256.076 15.8859 256.232 15.1733 256.543 14.5966C256.855 14.0199 257.279 13.5559 257.816 13.2045C258.353 12.8532 258.963 12.5881 259.646 12.4091C260.335 12.2301 261.058 12.1042 261.813 12.0312C262.701 11.9384 263.417 11.8523 263.961 11.7727C264.504 11.6866 264.899 11.5606 265.144 11.3949C265.389 11.2292 265.512 10.9839 265.512 10.6591V10.5994C265.512 9.9697 265.313 9.48248 264.915 9.13778C264.524 8.79309 263.968 8.62074 263.245 8.62074C262.483 8.62074 261.876 8.78977 261.425 9.12784C260.975 9.45928 260.676 9.87689 260.531 10.3807L256.613 10.0625C256.812 9.13447 257.203 8.33239 257.786 7.65625C258.37 6.97348 259.122 6.44981 260.043 6.08523C260.971 5.71401 262.045 5.52841 263.265 5.52841C264.113 5.52841 264.925 5.62784 265.701 5.8267C266.483 6.02557 267.176 6.33381 267.779 6.75142C268.389 7.16903 268.87 7.70597 269.221 8.36222C269.572 9.01184 269.748 9.79072 269.748 10.6989V21H265.731V18.8821H265.612C265.366 19.3594 265.038 19.7803 264.627 20.1449C264.216 20.5028 263.722 20.7846 263.146 20.9901C262.569 21.1889 261.903 21.2884 261.147 21.2884ZM262.36 18.3651C262.983 18.3651 263.533 18.2424 264.011 17.9972C264.488 17.7453 264.862 17.4072 265.134 16.983C265.406 16.5587 265.542 16.0781 265.542 15.5412V13.9205C265.409 14.0066 265.227 14.0862 264.995 14.1591C264.77 14.2254 264.514 14.2884 264.229 14.348C263.944 14.401 263.659 14.4508 263.374 14.4972C263.089 14.5369 262.831 14.5734 262.599 14.6065C262.102 14.6795 261.667 14.7955 261.296 14.9545C260.925 15.1136 260.637 15.3291 260.431 15.6009C260.226 15.866 260.123 16.1974 260.123 16.5952C260.123 17.1719 260.332 17.6127 260.749 17.9176C261.174 18.2159 261.71 18.3651 262.36 18.3651ZM282.828 14.4972V5.72727H287.064V21H282.997V18.2259H282.838C282.493 19.1207 281.92 19.84 281.118 20.3835C280.322 20.9271 279.351 21.1989 278.205 21.1989C277.184 21.1989 276.286 20.9669 275.51 20.5028C274.734 20.0388 274.128 19.3793 273.69 18.5241C273.259 17.669 273.041 16.6449 273.034 15.4517V5.72727H277.27V14.696C277.277 15.5975 277.518 16.3101 277.996 16.8338C278.473 17.3575 279.113 17.6193 279.915 17.6193C280.425 17.6193 280.902 17.5033 281.347 17.2713C281.791 17.0327 282.149 16.6813 282.42 16.2173C282.699 15.7533 282.835 15.1799 282.828 14.4972ZM292.928 21.2585C292.272 21.2585 291.708 21.0265 291.238 20.5625C290.774 20.0919 290.542 19.5284 290.542 18.8722C290.542 18.2225 290.774 17.6657 291.238 17.2017C291.708 16.7377 292.272 16.5057 292.928 16.5057C293.564 16.5057 294.121 16.7377 294.598 17.2017C295.076 17.6657 295.314 18.2225 295.314 18.8722C295.314 19.3097 295.202 19.7107 294.976 20.0753C294.757 20.4332 294.469 20.7216 294.111 20.9403C293.753 21.1525 293.359 21.2585 292.928 21.2585ZM303.028 12.1705V21H298.792V5.72727H302.829V8.42188H303.008C303.346 7.53362 303.913 6.83097 304.708 6.31392C305.504 5.79025 306.468 5.52841 307.602 5.52841C308.662 5.52841 309.587 5.76042 310.376 6.22443C311.165 6.68845 311.778 7.35133 312.215 8.21307C312.653 9.06818 312.871 10.089 312.871 11.2756V21H308.636V12.0312C308.642 11.0966 308.404 10.3674 307.92 9.84375C307.436 9.31345 306.77 9.0483 305.921 9.0483C305.351 9.0483 304.847 9.17093 304.41 9.41619C303.979 9.66146 303.641 10.0194 303.396 10.4901C303.157 10.9541 303.034 11.5142 303.028 12.1705ZM320.446 0.636363V21H316.21V0.636363H320.446Z" fill="#392B43"/>
</svg>
