<svg width="2350" height="1509" viewBox="0 0 2350 1509" fill="none" xmlns="http://www.w3.org/2000/svg">
<path d="M2228.39 1485.76H89.5054C50.2521 1427 85.6521 1326.64 139.451 1280.81C193.249 1234.99 266.003 1219.31 335.987 1209.45C405.969 1199.6 478.309 1193.51 541.559 1161.97C661.875 1102 722.877 961.255 731.824 827.116C740.771 692.978 707.821 560.122 688.865 427.027C679.339 360.147 673.409 291.334 688.792 225.547C704.175 159.747 743.993 96.6803 805.196 68.067C840.847 51.4003 881.197 47.3337 920.535 48.5603C1037.39 52.2137 1152.17 102.24 1234.39 185.374C1316.6 268.507 1365.36 383.827 1367.71 500.72C1369.4 584.951 1348.07 668.396 1349.91 752.626C1351.73 836.855 1384.45 929.116 1460.35 965.712C1528.08 998.38 1609.09 977.432 1678.16 947.664C1747.23 917.896 1815.51 879.087 1890.68 876.659C1966.08 874.223 2041.63 912.062 2084.83 973.914C2128.04 1035.76 2137.57 1119.72 2109.33 1189.68C2170.92 1189.37 2231.64 1222.56 2264.65 1274.53C2297.67 1326.52 2254.85 1430.16 2228.39 1485.76Z" fill="#E4D1FE"/>
<path d="M331.955 599.198C305.629 535.128 317.212 457.056 361.005 403.387C374.384 386.987 390.923 371.987 397.056 351.734C404.051 328.627 396.091 302.774 404.159 280.027C410.343 262.587 488.411 183.747 558.305 243.787C565.421 238.88 566.135 227.92 598.789 222.814C626.053 218.534 655.192 229.254 673.192 250.174C691.192 271.094 697.445 301.507 689.16 327.827C683.433 346.014 671.593 361.534 662.157 378.107C652.72 394.68 645.456 414.094 650.139 432.587C655.22 452.651 672.827 466.548 685.436 482.964C702.132 504.703 710.537 532.656 708.597 559.999C706.659 587.34 694.392 613.827 674.793 632.991C614.583 643.687 550.821 649.324 489.668 649.042C457.076 648.891 423.999 647.084 393.111 636.683C369.893 628.864 341.265 621.858 331.955 599.198Z" fill="#372B47"/>
<path d="M89.5054 716.138C149.88 583.004 346.891 457.448 458.435 606.255C471.6 623.818 543.027 629.76 543.027 629.76C543.027 629.76 535.867 654.308 656.831 566.959C781.587 476.872 947.459 604.611 1016.84 716.138L863.971 817.464L829.211 764.65L880.235 1312.59H254.105L289.695 778.875L261.731 810.634L89.5054 716.138Z" fill="#F9B301"/>
<path d="M1388.72 609.381C1370.43 606.135 1354.51 595.287 1343.75 580.271C1333.23 565.573 1327.21 547.095 1328.04 528.955C1328.77 512.784 1335.63 494.517 1350.19 485.933C1368.23 475.293 1389.63 485.417 1401.67 500.304C1408.45 508.708 1413.12 518.663 1417 528.679C1420.63 538.017 1423.75 547.559 1426.43 557.207C1430.47 571.677 1433.47 586.42 1435.45 601.296C1421.53 609.447 1404.56 612.193 1388.72 609.381ZM1941.6 423.16C1930.47 460.777 1906.15 494.272 1873.53 516.159C1838.07 539.96 1793.97 549.515 1751.83 542.821C1706.11 535.561 1664.95 512.796 1620.6 500.668C1582.97 490.375 1540.71 488.365 1506.4 509.86C1498.84 514.601 1491.91 520.431 1486.16 527.273C1480.11 534.468 1475.56 542.684 1471.49 551.113C1463.16 568.328 1455.97 587.197 1439.71 598.597C1439.32 598.864 1438.92 599.108 1438.55 599.365C1437.69 593.219 1436.69 587.091 1435.49 580.997C1431.53 560.751 1425.81 540.583 1417.71 521.585C1409.84 503.148 1397.24 484.977 1376.83 479.536C1359.43 474.899 1343.03 482.969 1333.83 497.951C1324.67 512.88 1322.93 531.172 1326.27 548.105C1329.83 566.141 1339.19 583.257 1352.97 595.492C1366.59 607.569 1384.09 614.101 1402.31 613.765C1413.97 613.549 1425.69 610.568 1435.89 604.892C1438.83 628.775 1439.19 652.975 1437.01 676.945C1433.33 717.403 1422.37 757.3 1404.45 793.776C1400.12 802.587 1395.37 811.184 1390.25 819.563C1389.13 821.405 1392.03 823.089 1393.15 821.252C1414.93 785.577 1429.63 745.747 1436.72 704.573C1442.49 671.073 1443.32 636.745 1439.04 603.032C1442.89 600.597 1446.49 597.76 1449.73 594.503C1464.07 580.117 1469.8 560.027 1479.59 542.741C1500.09 506.565 1542.71 493.547 1582.2 496.893C1630.44 500.981 1673.73 525.069 1719.48 538.707C1741.41 545.249 1764.09 549.243 1787.05 548.1C1808.2 547.047 1829.09 542.111 1848.49 533.655C1885.93 517.348 1916.65 487.437 1934.48 450.747C1938.65 442.149 1942.11 433.213 1944.83 424.053C1945.43 421.973 1942.2 421.093 1941.6 423.16Z" fill="#372B47"/>
<path d="M1926.19 432.667L1881.17 451.091L1903.68 458.534L1909.53 483.696L1921.93 476.963C1921.93 476.963 1947.45 503.543 1947.45 502.48C1947.45 501.418 1947.45 432.667 1947.45 432.667H1926.19Z" fill="#AD12A9"/>
<path d="M1557.67 637.839C1554.15 642.673 1547.93 645.179 1541.96 644.917C1535.99 644.656 1530.29 641.859 1525.84 637.861C1520.51 633.067 1516.73 626.348 1516.23 619.189C1515.72 612.032 1518.72 604.542 1524.49 600.298C1518.89 595.476 1513.89 588.232 1511.16 581.359C1508.43 574.484 1507.87 566.616 1510.4 559.667C1512.95 552.717 1518.77 546.868 1525.95 545.071C1533.12 543.274 1541.41 545.977 1545.56 552.107C1547.68 546.973 1551.76 541.379 1555.11 536.948C1558.45 532.519 1563.19 528.867 1568.67 528.008C1575.33 526.965 1582.28 530.368 1586.23 535.827C1590.19 541.287 1591.33 548.488 1590.12 555.12C1599.17 549.112 1612.99 550.799 1620.11 559.008C1622.43 561.679 1624.11 564.917 1624.84 568.379C1626.47 576.024 1622.96 584.494 1616.41 588.766C1620.89 589.13 1625.29 595.087 1625.6 599.569C1625.87 603.58 1623.63 607.282 1621.47 610.671C1619.4 613.915 1617.27 617.222 1614.25 619.615C1611.24 622.008 1607.12 623.363 1603.48 622.139C1591.99 632.732 1573.11 640.301 1557.67 637.839Z" fill="#372B47"/>
<path d="M1723.2 658.54C1717.21 658.382 1711.63 654.692 1708.45 649.623C1705.27 644.554 1704.35 638.282 1705.11 632.348C1706.03 625.231 1709.43 618.316 1715.03 613.834C1720.63 609.35 1728.49 607.567 1735.28 609.922C1736.05 602.566 1739.19 594.344 1743.29 588.191C1747.4 582.038 1753.56 577.108 1760.72 575.252C1767.88 573.396 1776.01 574.876 1781.56 579.764C1787.12 584.652 1789.6 593.018 1786.91 599.907C1792.33 598.735 1799.25 598.915 1804.8 599.156C1810.35 599.398 1816.04 601.223 1819.87 605.251C1824.51 610.143 1825.64 617.791 1823.39 624.147C1821.15 630.504 1815.87 635.531 1809.72 638.296C1819.8 642.344 1826.25 654.668 1823.53 665.195C1822.65 668.62 1820.95 671.847 1818.51 674.414C1813.13 680.086 1804.17 682.012 1796.95 679.051C1799.19 682.944 1796.77 689.944 1793.27 692.74C1790.12 695.243 1785.8 695.495 1781.77 695.639C1777.93 695.776 1774 695.903 1770.32 694.782C1766.64 693.66 1763.19 691.039 1762.12 687.34C1746.88 683.888 1729.93 672.647 1723.2 658.54Z" fill="#372B47"/>
<path d="M1767.73 741.544C1772.61 727.936 1773.01 713.191 1773.35 698.737C1773.61 687.517 1773.43 675.048 1765.77 666.843C1758.07 658.59 1745.48 657.579 1734.2 657.873C1722.92 658.168 1741.32 643.606 1731.71 637.687C1720.51 630.79 1685.69 632.393 1678.87 621.145C1660.76 591.284 1619.75 578.688 1587.12 591.16C1554.51 603.632 1532.65 638.545 1533.29 673.46C1533.55 686.587 1536.84 700.055 1545.03 710.32C1554.36 722.035 1568.81 728.268 1582.85 733.513C1620.03 747.407 1658.6 757.528 1697.8 763.697C1710.28 765.663 1726.6 771.6 1739.27 770.357C1753.33 768.976 1763.4 753.656 1767.73 741.544Z" fill="#372B47"/>
<path d="M1463.88 1334.45L1424 1498.36H1886.87C1886.87 1498.36 1878.32 1458.28 1840.32 1362.99C1748.33 1304.11 1463.88 1334.45 1463.88 1334.45Z" fill="#F9B301"/>
<path d="M1694.72 904.668C1694.72 904.668 1849.51 813.397 1908.05 1029.08L1775.72 1062.16L1886.87 1433.67C1886.87 1433.67 1789.2 1444.44 1655.36 1444.44C1474.95 1444.44 1407.45 1428.08 1407.45 1428.08L1453.97 1055.93C1453.97 1055.93 1382.12 858.305 1577.44 900.931C1708.73 929.584 1694.72 904.668 1694.72 904.668Z" fill="#372B47"/>
<path d="M1561.07 689.151C1561.07 689.151 1504.76 849.95 1585.23 866.483L1582.99 920.458C1582.99 920.458 1620.96 960.232 1702.91 924.382C1702.91 924.382 1697.68 826.147 1700.99 802.999C1700.99 802.999 1752.45 773.467 1741.97 735.439C1731.51 697.411 1700.63 732.307 1700.63 732.307L1694.53 704.539C1694.53 704.539 1583.11 664.351 1561.07 689.151Z" fill="#EF8F5F"/>
<path d="M1692.49 768.976C1692.49 783.417 1680.77 795.125 1666.33 795.125C1651.89 795.125 1640.19 783.417 1640.19 768.976C1640.19 754.533 1651.89 742.825 1666.33 742.825C1680.77 742.825 1692.49 754.533 1692.49 768.976Z" fill="#F27454"/>
<path d="M1677.41 817.696C1667.24 845.347 1641.16 865.05 1611.75 867.127C1602.91 867.751 1594.07 866.867 1585.53 864.483C1582.41 863.608 1581.08 868.467 1584.2 869.339C1600.33 873.847 1617.83 873.29 1633.61 867.63C1648.08 862.44 1660.77 853.096 1670.17 840.954C1675.32 834.296 1679.37 826.934 1682.28 819.035C1683.4 815.988 1678.53 814.674 1677.41 817.696Z" fill="#F27454"/>
<path d="M1729.28 745.311C1728.95 744.098 1727.47 743.062 1726.19 743.552C1718.28 746.584 1711.57 752.162 1707.31 759.49C1705.67 762.296 1710.03 764.834 1711.65 762.031C1713.53 758.804 1715.67 756.254 1718.57 753.752C1719.85 752.66 1721.16 751.72 1722.77 750.75C1723.55 750.286 1724.35 749.852 1725.15 749.454C1725.6 749.234 1726.04 749.023 1726.49 748.823C1726.53 748.808 1726.79 748.7 1726.84 748.679C1727.07 748.587 1727.29 748.498 1727.52 748.41C1728.79 747.923 1729.67 746.715 1729.28 745.311Z" fill="#F27454"/>
<path d="M1582.33 795.661C1578.89 798.119 1573.99 797.232 1572.49 792.96C1571.63 790.482 1572.4 787.727 1573.12 785.316C1573.91 782.675 1574.79 780.06 1575.63 777.435C1579.04 766.748 1582.45 756.061 1585.87 745.376C1586.85 742.281 1581.99 740.955 1581.01 744.037C1576.84 757.101 1572.55 770.135 1568.49 783.239C1566.84 788.578 1566.11 794.601 1570.44 798.907C1574.31 802.741 1580.47 803.16 1584.88 800.012C1587.49 798.143 1584.97 793.773 1582.33 795.661Z" fill="#F27454"/>
<path d="M1648.47 728.231C1640.33 720.484 1629.92 715.267 1618.8 713.569C1617.45 713.365 1616.09 713.908 1615.69 715.328C1615.37 716.521 1616.11 718.22 1617.45 718.427C1627.75 719.997 1637.36 724.603 1644.91 731.792C1647.25 734.027 1650.83 730.471 1648.47 728.231Z" fill="#372B47"/>
<path d="M1573.01 713.008C1572.63 711.604 1571.25 710.998 1569.91 711.25C1565.84 712.011 1561.84 713.119 1557.96 714.594C1554.27 716 1549.81 717.902 1549.08 722.314C1548.87 723.654 1549.44 725.026 1550.84 725.411C1552.05 725.743 1553.72 725.002 1553.95 723.652C1554.16 722.306 1554.95 721.522 1556.24 720.795C1557.63 720.016 1559.13 719.496 1560.63 718.96C1564.09 717.726 1567.64 716.782 1571.25 716.107C1572.59 715.856 1573.35 714.24 1573.01 713.008Z" fill="#372B47"/>
<path d="M1623.55 751.869C1623.55 757.163 1619.25 761.453 1613.96 761.453C1608.67 761.453 1604.39 757.163 1604.39 751.869C1604.39 746.576 1608.67 742.285 1613.96 742.285C1619.25 742.285 1623.55 746.576 1623.55 751.869Z" fill="#372B47"/>
<path d="M1626.4 748.166H1613.96V742.286H1626.4C1628.03 742.286 1629.35 743.601 1629.35 745.225C1629.35 746.848 1628.03 748.166 1626.4 748.166Z" fill="#372B47"/>
<path d="M1546.39 751.869C1546.39 757.163 1550.68 761.453 1555.97 761.453C1561.27 761.453 1565.56 757.163 1565.56 751.869C1565.56 746.576 1561.27 742.285 1555.97 742.285C1550.68 742.285 1546.39 746.576 1546.39 751.869Z" fill="#372B47"/>
<path d="M1543.53 748.166H1555.97V742.286H1543.53C1541.91 742.286 1540.6 743.601 1540.6 745.225C1540.6 746.848 1541.91 748.166 1543.53 748.166Z" fill="#372B47"/>
<path d="M1500.27 945.207C1500.27 945.207 1497.03 870.735 1464.57 837.86C1432.12 804.984 1403.21 794.56 1399.63 804.426C1396.04 814.291 1398.13 818.776 1398.13 818.776C1398.13 818.776 1380.87 822.303 1384.2 835.596C1384.2 835.596 1371.09 842.908 1377.2 857.574C1377.2 857.574 1362.88 862.99 1373.83 876.598C1384.77 890.204 1403.83 902.224 1403.83 902.224C1403.83 902.224 1396.2 980.37 1453.97 994.304L1500.27 945.207Z" fill="#EF8F5F"/>
<path d="M1400.68 816.089C1419.99 820.661 1437.21 832.505 1448.36 848.921C1449.89 851.173 1446.39 853.539 1444.85 851.289C1434.33 835.781 1418.07 824.549 1399.83 820.227C1397.19 819.603 1398.03 815.46 1400.68 816.089Z" fill="#F27454"/>
<path d="M1386.07 831.75C1406.83 834.566 1425.2 848.742 1433.47 867.934C1434.55 870.431 1430.53 871.77 1429.47 869.286C1421.76 851.419 1404.44 838.496 1385.21 835.888C1382.52 835.523 1383.39 831.386 1386.07 831.75Z" fill="#F27454"/>
<path d="M1378.63 855.956C1395.64 862.894 1410.08 875.722 1418.95 891.816C1420.24 894.182 1416.76 896.566 1415.44 894.184C1406.88 878.651 1393.17 866.439 1376.75 859.743C1374.23 858.715 1376.12 854.934 1378.63 855.956Z" fill="#F27454"/>
<path d="M1397.37 806.398C1398.49 803.159 1400.87 800.23 1404.11 798.972C1405.17 798.56 1406.43 799.031 1406.88 800.103C1407.31 801.135 1406.81 802.454 1405.75 802.868C1403.44 803.762 1402 805.783 1401.19 808.275C1400.29 811.067 1400.56 814.647 1400.79 817.742C1400.87 818.879 1400.13 819.954 1398.96 820.106C1397.87 820.246 1396.68 819.424 1396.6 818.282C1396.29 814.304 1396.05 810.231 1397.37 806.398Z" fill="#F27454"/>
<path d="M1381.83 834.096C1382.12 835.204 1382.95 836.083 1384.2 835.922C1385.23 835.788 1386.31 834.661 1386.01 833.556C1385.16 830.277 1386.76 827.052 1389.25 824.789C1390.72 823.469 1392.37 822.384 1394.05 821.369C1394.83 820.903 1395.61 820.384 1396.45 820.053C1396.6 819.995 1396.75 819.937 1396.89 819.903C1396.93 819.893 1397.39 819.835 1397.2 819.839C1397.31 819.837 1397.67 819.904 1397.65 819.899C1397.69 819.927 1397.73 819.948 1397.8 820.001C1399.97 821.635 1402.56 818.292 1400.37 816.656C1397.89 814.795 1395.12 815.879 1392.73 817.272C1390.71 818.461 1388.67 819.691 1386.89 821.25C1383.33 824.379 1380.55 829.216 1381.83 834.096Z" fill="#F27454"/>
<path d="M1374.16 845.032C1374.59 842.791 1375.44 840.679 1376.73 838.788C1378.21 836.593 1380.35 834.907 1382.41 833.288C1384.56 831.609 1387.13 834.957 1385 836.633C1381.89 839.063 1379.12 841.592 1378.35 845.625C1377.69 848.989 1378.31 852.54 1380.32 855.34C1381.92 857.545 1378.57 860.129 1376.99 857.921C1374.32 854.237 1373.29 849.496 1374.16 845.032Z" fill="#F27454"/>
<path d="M1376.01 855.167C1378.52 854.128 1380.16 858.025 1377.64 859.064C1371.64 861.544 1369.39 868.805 1373.09 874.217C1374.89 876.859 1377.43 878.88 1379.83 880.952C1382.67 883.415 1385.52 885.877 1388.37 888.34C1390.43 890.112 1387.85 893.465 1385.79 891.684C1382.4 888.751 1378.99 885.828 1375.6 882.884C1372.68 880.337 1369.72 877.603 1368.16 873.967C1365.01 866.624 1368.73 858.171 1376.01 855.167Z" fill="#F27454"/>
<path d="M1908.19 1124.89C1902.45 1166.2 1879.33 1205.41 1812.15 1204.84C1801 1205.4 1788.51 1203.73 1775.07 1200.31C1653.6 1169.43 1453.97 994.304 1453.97 994.304L1500.27 945.212L1743.39 1065.65L1899.75 1031.15C1899.75 1031.15 1914.55 1079.31 1908.19 1124.89Z" fill="#EF8F5F"/>
<path d="M1702.31 726.505C1702.31 726.505 1643.89 737.559 1640.19 681.068C1636.48 624.579 1670.87 657.736 1673.56 661.911C1676.27 666.087 1689.28 682.788 1689.77 688.191C1690.27 693.595 1713.36 689.665 1712.87 697.279C1712.37 704.892 1702.31 726.505 1702.31 726.505Z" fill="#372B47"/>
<path d="M1926.61 442.021C1904.44 418.8 1887.11 393.613 1874.05 367.44C1793.79 206.653 1874.72 8.89351 1984 1.25351C2118.69 -8.17315 2117.88 166.72 2117.88 166.72C2117.88 166.72 2174.39 145.4 2228.72 154.08C2266.85 160.173 2303.92 181.053 2319.67 234.467C2355.67 356.653 2137.44 532.569 1926.61 442.021Z" fill="#AD12A9"/>
<path d="M1453.95 1221.04C1446.41 1229.31 1436.39 1234.32 1423.23 1234.8C1376.31 1236.52 1352.25 1213.99 1341.83 1180.91C1315.67 1097.97 1375.23 948.719 1375.23 948.719L1349.51 917.339L1401.99 877.063L1452.83 1000.43C1452.83 1000.43 1499.73 1170.79 1453.95 1221.04Z" fill="#EF8F5F"/>
<path d="M1444.64 989.517C1432.17 989.021 1422.41 979.432 1417.07 968.867C1414.03 962.873 1412.12 956.38 1410.55 949.872C1408.84 942.804 1407.4 935.657 1406.2 928.485C1404.81 920.099 1403.87 911.644 1403.55 903.147C1403.47 901 1400.12 900.989 1400.2 903.147C1400.79 918.791 1403.45 934.345 1407.03 949.565C1410.12 962.676 1414.81 976.332 1425.57 985.159C1431.01 989.624 1437.55 992.58 1444.64 992.863C1446.8 992.948 1446.79 989.603 1444.64 989.517Z" fill="#F27454"/>
<path d="M1908.19 1124.89C1902.45 1166.2 1879.33 1205.41 1812.15 1204.84C1801 1205.4 1788.51 1203.73 1775.07 1200.31C1783.6 1153.83 1824.31 1118.6 1873.25 1118.6C1885.55 1118.6 1897.32 1120.83 1908.19 1124.89Z" fill="#F27454"/>
<path d="M1453.95 1221.04C1446.41 1229.31 1436.39 1234.32 1423.23 1234.8C1376.31 1236.52 1352.25 1213.99 1341.83 1180.91C1353.13 1174.79 1366.08 1171.32 1379.83 1171.32C1413.32 1171.32 1442 1191.87 1453.95 1221.04Z" fill="#F27454"/>
<path d="M1392.28 902.523C1391.65 929.159 1381.76 955.325 1365.03 976.021C1356.73 986.261 1346.85 995.096 1335.69 1002.1C1325.31 1008.62 1314.16 1013.8 1303.19 1019.25C1281.95 1029.81 1259.87 1042.41 1250.49 1065.52C1239.51 1092.65 1248.89 1123.04 1263.89 1146.6C1280.24 1172.28 1303.2 1192.85 1320.39 1217.91C1328.55 1229.8 1335.07 1242.61 1338.97 1256.52C1342.67 1269.64 1344.16 1283.36 1343.32 1296.97C1341.67 1323.35 1330.73 1348.99 1310.73 1366.61C1292.39 1382.79 1267.56 1392.05 1243.04 1390.59C1217.88 1389.07 1187.01 1373.92 1185.43 1345.49C1184.69 1332.17 1192.07 1319.53 1205.29 1315.83C1210.95 1314.24 1217.27 1314.61 1222.32 1317.77C1226.96 1320.67 1230.15 1325.63 1231.37 1330.91C1232.6 1336.11 1231.73 1341.47 1228.48 1345.76C1227.19 1347.48 1230.09 1349.15 1231.37 1347.45C1238.05 1338.61 1235.52 1325.67 1228.05 1318.12C1219.53 1309.51 1205.91 1310.05 1196.19 1316.31C1184.68 1323.69 1180.36 1337.43 1182.68 1350.53C1185.12 1364.37 1194.65 1375.53 1206.37 1382.75C1228.29 1396.24 1256.11 1396.97 1279.96 1388.47C1304.4 1379.75 1324.92 1361.85 1336.13 1338.37C1348.2 1313.13 1349.8 1283.59 1342.51 1256.73C1334.29 1226.47 1313.88 1202.95 1293.81 1179.73C1273.55 1156.29 1252.31 1130.28 1249.45 1098.17C1248.15 1083.44 1250.93 1068.47 1259.28 1056.07C1266.25 1045.71 1276.33 1038.01 1286.97 1031.69C1309.24 1018.48 1334.24 1010.15 1353.81 992.652C1374.27 974.385 1388.49 949.127 1393.56 922.184C1394.79 915.697 1395.47 909.12 1395.63 902.523C1395.68 900.369 1392.33 900.369 1392.28 902.523Z" fill="#372B47"/>
<path d="M1375.44 904.783C1382.95 904.115 1379.57 905.01 1395.72 898.326C1415.65 890.074 1403.36 875.706 1403.36 875.706C1418.68 863.44 1408.81 847.74 1408.81 847.74C1420.32 835.316 1403.71 821.248 1403.71 821.248C1403.71 821.248 1408.63 817.63 1410.6 804.81C1412.15 794.687 1389.09 788.904 1352.4 794.979C1331.55 798.431 1314.97 814.366 1310.8 835.079C1303.05 873.518 1303.24 934.066 1375.24 948.715V907.268L1375.44 904.783Z" fill="#EF8F5F"/>
<path d="M1402.53 816.824C1378.91 810.323 1353.21 812.933 1331.39 824.107C1328.39 825.639 1330.79 830.28 1333.77 828.749C1354.39 818.193 1378.67 815.669 1401 821.813C1404.24 822.703 1405.79 817.719 1402.53 816.824Z" fill="#F27454"/>
<path d="M1409.08 842.463C1384.91 833.196 1356.59 837.656 1336.24 853.546C1333.6 855.612 1337.15 859.442 1339.77 857.386C1358.72 842.592 1385.16 838.87 1407.55 847.454C1410.68 848.656 1412.2 843.663 1409.08 842.463Z" fill="#F27454"/>
<path d="M1402.77 873.112C1380.23 870.531 1356.97 875.867 1337.8 888.043C1334.99 889.833 1337.36 894.488 1340.2 892.687C1358.68 880.933 1380.79 875.835 1402.56 878.327C1405.91 878.708 1406.09 873.492 1402.77 873.112Z" fill="#F27454"/>
<path d="M1411.87 808.28C1412.57 804.109 1411.75 799.528 1408.97 796.24C1408.07 795.163 1406.44 794.928 1405.31 795.824C1404.23 796.687 1403.99 798.409 1404.89 799.492C1406.87 801.828 1407.23 804.872 1406.61 808.051C1405.93 811.613 1403.53 815.335 1401.44 818.551C1400.68 819.733 1400.83 821.335 1402.01 822.196C1403.11 822.993 1404.89 822.811 1405.67 821.623C1408.35 817.488 1411.01 813.216 1411.87 808.28Z" fill="#F27454"/>
<path d="M1414.41 830.595C1413.41 827.852 1411.93 825.313 1410.44 822.819C1408.68 819.893 1406.32 817.071 1402.52 817.617C1399.2 818.096 1400.01 823.252 1403.33 822.772C1403.44 822.757 1403.49 822.752 1403.55 822.745C1403.55 822.748 1403.97 822.889 1404.08 822.951C1403.88 822.839 1404.33 823.167 1404.37 823.201C1404.52 823.329 1404.63 823.473 1404.76 823.623C1405.48 824.484 1406.03 825.513 1406.59 826.481C1407.8 828.576 1408.95 830.733 1409.75 833.029C1411.11 836.961 1410.93 841.411 1408.05 844.451C1407.08 845.476 1407.6 847.343 1408.63 848.096C1409.89 849.015 1411.31 848.551 1412.28 847.523C1416.56 842.996 1416.41 836.101 1414.41 830.595Z" fill="#F27454"/>
<path d="M1414.09 863.924C1414.96 861.24 1415.28 858.443 1415.01 855.633C1414.71 852.373 1413.4 849.277 1412.12 846.299C1410.79 843.204 1406.01 845.304 1407.33 848.391C1409.25 852.865 1410.76 857.253 1409.21 862.084C1407.92 866.113 1405.15 869.599 1401.29 871.435C1398.27 872.88 1400.36 877.664 1403.39 876.216C1408.45 873.801 1412.39 869.272 1414.09 863.924Z" fill="#F27454"/>
<path d="M1406.08 873.808C1403.97 871.189 1399.88 874.443 1402 877.06C1407.03 883.311 1405.16 892.515 1397.93 896.185C1394.41 897.976 1390.48 898.665 1386.64 899.488C1382.09 900.464 1377.55 901.441 1373 902.417C1369.72 903.12 1370.52 908.28 1373.8 907.573C1379.23 906.409 1384.65 905.263 1390.07 904.083C1394.75 903.061 1399.59 901.855 1403.43 898.84C1411.2 892.753 1412.17 881.379 1406.08 873.808Z" fill="#F27454"/>
<path d="M1926.61 442.021C1904.44 418.8 1887.11 393.613 1874.05 367.44C1930.17 397.52 1995.91 409.64 2058.99 400.8C2089.83 396.467 2120.31 387.2 2146.68 370.653C2187.68 344.973 2217.03 302.147 2228.64 255.187C2236.81 222.133 2236.43 187.28 2228.72 154.08C2266.85 160.173 2303.92 181.053 2319.67 234.467C2355.67 356.653 2137.44 532.569 1926.61 442.021Z" fill="#770E77"/>
<path d="M2038.52 29.8538C2044.4 36.0004 2048.2 44.4671 2047.39 52.9204C2046.59 61.3871 2040.56 69.4803 2032.29 71.4137C2028.04 72.4137 2023.6 71.8004 2019.27 71.1871C2007.81 69.5738 1996.36 67.9603 1984.91 66.347C1979.96 65.6403 1975 64.947 1970.23 63.467C1968.43 62.907 1966.64 62.227 1965.05 61.2004C1958.84 57.1604 1957.16 48.2537 1959.8 41.3337C1962.44 34.4137 1968.47 29.2937 1974.93 25.6803C1985.87 19.5603 1998.73 16.947 2011.2 18.307C2012.59 18.467 2032.65 23.7204 2038.52 29.8538Z" fill="#CE71CB"/>
<path d="M2097.77 194.867C2094.73 197.187 2091.73 199.68 2089.64 202.893C2087.55 206.093 2086.48 210.16 2087.6 213.813C2089.12 218.787 2094.45 221.893 2099.65 222.053C2104.84 222.2 2109.83 219.907 2114.09 216.947C2118.36 213.973 2122.12 210.333 2126.31 207.253C2136 200.147 2147.75 196.347 2159.53 194.013C2171.32 191.68 2183.35 190.72 2195.19 188.667C2203.95 187.147 2217.63 182.413 2215.43 170.733C2213.96 162.893 2203.4 163.253 2197.27 163.16C2174.53 162.813 2152.11 166.68 2131.11 175.56C2119.25 180.573 2108.01 187.053 2097.77 194.867Z" fill="#CE71CB"/>
<path d="M2056.83 234.707C2053.93 239.147 2054.45 245.773 2058.57 249.107C2061.44 251.44 2065.59 251.88 2069.07 250.667C2072.56 249.44 2075.39 246.694 2077.19 243.467C2079.97 238.467 2080.01 228.453 2072.53 227.4C2070.15 227.067 2067.24 228.307 2065.01 228.987C2061.73 230.014 2058.75 231.787 2056.83 234.707Z" fill="#CE71CB"/>
<path d="M628.263 358.254C628.263 358.254 696.767 535.119 605.844 553.802L610.946 615.654C610.946 615.654 562.676 664.468 455.884 616.724C455.884 616.724 473.659 476.231 469.923 450.075C469.923 450.075 405.315 431.12 417.147 388.147C428.98 345.174 470.704 388.147 470.704 388.147L475.064 343.934C475.064 343.934 603.352 330.227 628.263 358.254Z" fill="#EF8F5F"/>
<path d="M484.64 443.622C484.64 459.94 497.869 473.169 514.189 473.169C530.508 473.169 543.737 459.94 543.737 443.622C543.737 427.307 530.508 414.08 514.189 414.08C497.869 414.08 484.64 427.307 484.64 443.622Z" fill="#F27454"/>
<path d="M501.665 498.673C513.171 529.917 542.639 552.183 575.875 554.529C585.865 555.235 595.845 554.235 605.489 551.541C609.023 550.553 610.531 556.043 607.003 557.029C588.771 562.123 569 561.493 551.167 555.096C534.821 549.233 520.477 538.675 509.857 524.953C504.035 517.431 499.464 509.111 496.177 500.187C494.909 496.743 500.408 495.259 501.665 498.673Z" fill="#F27454"/>
<path d="M433.138 393.813C433.516 392.44 435.197 391.28 436.64 391.827C445.564 395.253 453.148 401.56 457.972 409.84C459.82 413.013 454.902 415.88 453.057 412.707C450.933 409.067 448.529 406.173 445.233 403.347C443.793 402.12 442.314 401.053 440.486 399.96C439.613 399.44 438.718 398.947 437.806 398.493C437.304 398.24 436.797 398.013 436.284 397.787C436.245 397.76 435.957 397.64 435.901 397.627C435.644 397.52 435.386 397.413 435.126 397.32C433.693 396.76 432.704 395.4 433.138 393.813Z" fill="#F27454"/>
<path d="M609.112 457.487C612.999 460.263 618.549 459.261 620.232 454.433C621.207 451.633 620.328 448.521 619.519 445.796C618.632 442.811 617.635 439.856 616.687 436.893C612.831 424.813 608.975 412.747 605.119 400.667C604.001 397.173 609.495 395.667 610.607 399.147C615.321 413.92 620.175 428.64 624.751 443.449C626.615 449.481 627.449 456.288 622.547 461.153C618.181 465.487 611.219 465.959 606.239 462.401C603.284 460.291 606.123 455.352 609.112 457.487Z" fill="#F27454"/>
<path d="M574.305 324.747C574.305 324.747 507.056 413.054 461.205 368.227C415.353 323.387 497.207 297.574 514.189 301.987C531.171 306.414 574.305 324.747 574.305 324.747Z" fill="#372B47"/>
<path d="M538.478 375.867C547.674 367.12 559.446 361.213 572.01 359.307C573.528 359.067 575.07 359.68 575.512 361.293C575.881 362.64 575.052 364.56 573.524 364.787C561.891 366.56 551.038 371.773 542.504 379.893C539.85 382.413 535.82 378.4 538.478 375.867Z" fill="#372B47"/>
<path d="M619.648 363.227C620.084 361.64 621.632 360.96 623.148 361.24C627.752 362.107 632.275 363.36 636.653 365.027C640.831 366.614 645.853 368.76 646.681 373.747C646.933 375.267 646.285 376.814 644.695 377.254C643.332 377.627 641.447 376.787 641.193 375.254C640.941 373.734 640.053 372.854 638.593 372.027C637.028 371.147 635.333 370.56 633.635 369.96C629.727 368.56 625.713 367.494 621.636 366.734C620.124 366.454 619.265 364.627 619.648 363.227Z" fill="#372B47"/>
<path d="M550.577 406.707C557.455 398.334 568.593 394.347 579.23 395.947C580.369 396.12 580.997 397.56 580.719 398.574C580.384 399.787 579.24 400.227 578.099 400.054C568.919 398.68 559.433 402.614 553.591 409.72C551.849 411.84 548.849 408.814 550.577 406.707Z" fill="#372B47"/>
<path d="M626.716 389.454C633.974 387.72 641.848 389.88 647.155 395.147C649.104 397.08 646.092 400.094 644.142 398.16C639.91 393.96 633.603 392.187 627.848 393.574C625.184 394.214 624.047 390.107 626.716 389.454Z" fill="#372B47"/>
<path d="M569.347 461.135C572.604 476.714 584.851 489.672 600.264 493.706C602.915 494.399 601.792 498.51 599.132 497.814C582.372 493.43 568.788 479.242 565.237 462.267C564.678 459.592 568.785 458.448 569.347 461.135Z" fill="#F27454"/>
<path d="M705.81 213.373C718.7 200.693 731.59 188.026 744.479 175.346C746.924 172.946 750.692 176.707 748.244 179.12C735.355 191.787 722.465 204.467 709.575 217.133C707.129 219.533 703.362 215.773 705.81 213.373Z" fill="#372B47"/>
<path d="M715.732 230.747C726.462 229.173 737.192 227.587 747.922 226.013C749.343 225.813 750.783 226.373 751.196 227.88C751.542 229.133 750.768 230.947 749.338 231.147C738.607 232.733 727.878 234.307 717.148 235.88C715.727 236.093 714.287 235.534 713.872 234.027C713.528 232.774 714.3 230.96 715.732 230.747Z" fill="#372B47"/>
<path d="M675.453 175.253C676.723 174.907 678.497 175.68 678.728 177.107C680.576 188.547 682.424 199.987 684.272 211.427C684.501 212.84 683.905 214.293 682.412 214.693C681.143 215.053 679.368 214.267 679.137 212.84C677.289 201.4 675.441 189.96 673.593 178.52C673.364 177.107 673.961 175.667 675.453 175.253Z" fill="#372B47"/>
<path d="M436.305 755.427C436.305 755.427 490.44 678.625 547.248 665.837C604.056 653.049 641.816 661.667 638.908 674.576C636 687.485 630.727 690.819 630.727 690.819C630.727 690.819 646.645 706.315 634.056 718.145C634.056 718.145 642.98 734.824 626.517 746.224C626.517 746.224 638.025 761.719 617.152 768.707C596.279 775.693 567.876 775.472 567.876 775.472C567.876 775.472 522.776 863.572 451.992 839.024L436.305 755.427Z" fill="#EF8F5F"/>
<path d="M629.854 686.233C606.26 677.944 579.92 678.781 556.919 688.609C553.763 689.959 555.868 694.851 559.02 693.504C580.75 684.22 605.64 683.369 627.94 691.204C631.167 692.337 633.099 687.373 629.854 686.233Z" fill="#F27454"/>
<path d="M634.691 712.792C610.751 701.649 581.612 704.185 559.775 718.917C556.935 720.833 560.275 724.983 563.102 723.076C583.431 709.36 610.604 707.442 632.779 717.763C635.886 719.21 637.791 714.236 634.691 712.792Z" fill="#F27454"/>
<path d="M626.111 743.541C603.338 739.319 579.291 743.104 558.927 754.141C555.934 755.764 558.015 760.669 561.028 759.036C580.682 748.383 603.539 744.757 625.522 748.835C628.898 749.46 629.467 744.164 626.111 743.541Z" fill="#F27454"/>
<path d="M569.308 773.232C582.021 774.2 594.827 773.045 607.163 769.807C613.195 768.224 620.472 766.447 625.32 762.332C627.341 760.616 628.811 758.357 628.772 755.633C628.741 753.451 627.839 751.3 625.708 750.487C622.5 749.263 624.417 744.295 627.621 745.516C633.583 747.791 635.475 755.242 633.075 760.791C629.933 768.056 621.404 770.967 614.455 773.188C599.696 777.904 584.165 779.701 568.717 778.525C565.293 778.264 565.892 772.974 569.308 773.232Z" fill="#F27454"/>
<path d="M451.283 837.039C467.419 842.712 485.292 842.344 501.493 837.081C519.441 831.251 534.904 819.638 546.596 804.932C553.501 796.248 559.088 786.626 563.413 776.416C564.749 773.26 569.721 775.168 568.384 778.328C560.237 797.56 547.633 815.152 530.821 827.725C516.004 838.807 498.009 845.662 479.461 846.4C469.228 846.808 459.041 845.409 449.369 842.009C446.128 840.869 448.053 835.903 451.283 837.039Z" fill="#F27454"/>
<path d="M636.3 716.648C641.289 720.856 642.417 727.569 640.547 733.615C638.581 739.968 633.677 744.75 629.017 749.234C627.98 750.232 626.115 749.867 625.275 748.816C624.307 747.606 624.65 746.076 625.692 745.073C629.417 741.489 633.337 737.728 635.203 732.788C636.671 728.904 636.59 723.843 633.173 720.962C632.076 720.035 631.692 718.464 632.581 717.242C633.378 716.143 635.196 715.717 636.3 716.648Z" fill="#F27454"/>
<path d="M631.863 688.917C636.684 692.648 640.749 697.808 641.707 703.976C642.552 709.42 640.795 715.157 636.608 718.817C635.524 719.764 633.736 719.489 632.865 718.4C631.932 717.233 632.195 715.608 633.283 714.659C636.044 712.244 637.044 708.149 636.383 704.417C635.568 699.824 632.325 696.007 628.736 693.229C626.025 691.133 629.148 686.819 631.863 688.917Z" fill="#F27454"/>
<path d="M538.964 665.574C561.54 658.212 585.261 655.067 608.976 656.335C612.405 656.517 611.8 661.81 608.387 661.627C585.64 660.411 562.726 663.405 541.066 670.468C537.838 671.52 535.697 666.639 538.964 665.574Z" fill="#F27454"/>
<path d="M0.257358 949.268C0.614691 1028.09 51.6614 1063.55 105.596 1070.64C135.069 1074.52 165.416 1069.95 188.827 1059.35C297.875 1010 451.996 839.027 451.996 839.027L436.305 755.422C436.305 755.422 319.128 800.104 219.744 859.923L261.733 810.642L89.496 716.143C24.328 818.308 -0.0279756 894.335 0.257358 949.268Z" fill="#EF8F5F"/>
<path d="M436.305 755.427C436.305 755.427 470.779 646.499 491.999 650.348C513.22 654.197 491.999 703.875 491.999 703.875L436.305 755.427Z" fill="#EF8F5F"/>
<path d="M670.042 755.427C670.042 755.427 615.908 678.625 559.1 665.837C502.292 653.049 464.533 661.667 467.441 674.576C470.349 687.485 475.621 690.819 475.621 690.819C475.621 690.819 459.702 706.315 472.293 718.145C472.293 718.145 463.368 734.824 479.832 746.224C479.832 746.224 468.324 761.719 489.197 768.707C510.07 775.693 538.472 775.472 538.472 775.472C538.472 775.472 583.573 863.572 654.357 839.024L670.042 755.427Z" fill="#EF8F5F"/>
<path d="M476.496 686.233C500.089 677.944 526.428 678.781 549.431 688.609C552.587 689.959 550.481 694.851 547.329 693.504C525.599 684.22 500.709 683.369 478.408 691.204C475.183 692.337 473.251 687.373 476.496 686.233Z" fill="#F27454"/>
<path d="M471.657 712.792C495.597 701.649 524.736 704.185 546.573 718.917C549.414 720.833 546.073 724.983 543.248 723.076C522.917 709.36 495.745 707.442 473.57 717.763C470.464 719.21 468.557 714.236 471.657 712.792Z" fill="#F27454"/>
<path d="M480.237 743.541C503.011 739.319 527.057 743.104 547.423 754.141C550.415 755.764 548.335 760.669 545.321 759.036C525.667 748.383 502.809 744.757 480.827 748.835C477.452 749.46 476.881 744.164 480.237 743.541Z" fill="#F27454"/>
<path d="M537.041 773.232C524.327 774.2 511.521 773.045 499.185 769.807C493.155 768.224 485.876 766.447 481.029 762.332C479.007 760.616 477.537 758.357 477.576 755.633C477.608 753.451 478.509 751.3 480.64 750.487C483.849 749.263 481.931 744.295 478.728 745.516C472.767 747.791 470.875 755.242 473.273 760.791C476.415 768.056 484.944 770.967 491.895 773.188C506.653 777.904 522.183 779.701 537.631 778.525C541.055 778.264 540.457 772.974 537.041 773.232Z" fill="#F27454"/>
<path d="M655.067 837.039C638.931 842.712 621.056 842.344 604.855 837.081C586.908 831.251 571.445 819.638 559.753 804.932C552.848 796.248 547.26 786.626 542.936 776.416C541.599 773.26 536.627 775.168 537.965 778.328C546.111 797.56 558.716 815.152 575.528 827.725C590.344 838.807 608.34 845.662 626.888 846.4C637.12 846.808 647.307 845.409 656.979 842.009C660.221 840.869 658.296 835.903 655.067 837.039Z" fill="#F27454"/>
<path d="M470.048 716.648C465.06 720.856 463.93 727.569 465.801 733.615C467.768 739.968 472.672 744.75 477.33 749.234C478.368 750.232 480.233 749.867 481.073 748.816C482.041 747.606 481.697 746.076 480.656 745.073C476.93 741.489 473.012 737.728 471.145 732.788C469.678 728.904 469.758 723.843 473.174 720.962C474.273 720.035 474.656 718.464 473.768 717.242C472.969 716.143 471.153 715.717 470.048 716.648Z" fill="#F27454"/>
<path d="M474.487 688.917C469.665 692.648 465.599 697.808 464.641 703.976C463.796 709.42 465.553 715.157 469.741 718.817C470.824 719.764 472.612 719.489 473.483 718.4C474.416 717.233 474.153 715.608 473.067 714.659C470.304 712.244 469.304 708.149 469.965 704.417C470.781 699.824 474.024 696.007 477.613 693.229C480.323 691.133 477.2 686.819 474.487 688.917Z" fill="#F27454"/>
<path d="M567.385 665.574C544.809 658.212 521.087 655.067 497.372 656.335C493.944 656.517 494.548 661.81 497.963 661.627C520.709 660.411 543.623 663.405 565.284 670.468C568.512 671.52 570.652 666.639 567.385 665.574Z" fill="#F27454"/>
<path d="M654.365 839.027C654.365 839.027 808.468 1010 917.516 1059.35C942.104 1070.48 974.307 1074.97 1005.13 1070C1062.67 1060.75 1115.41 1018.52 1104.73 924.931C1098.76 872.529 1072.87 804.008 1016.84 716.143L863.973 817.469L886.617 859.923C787.216 800.104 670.037 755.421 670.037 755.421L654.365 839.027Z" fill="#EF8F5F"/>
<path d="M670.042 755.427C670.042 755.427 635.571 646.499 614.349 650.348C593.128 654.197 614.349 703.875 614.349 703.875L670.042 755.427Z" fill="#EF8F5F"/>
<path d="M109.001 912.694C136.387 897.835 163.771 882.975 191.155 868.116C198.98 863.87 206.804 859.624 214.628 855.379C217.641 853.744 220.332 858.34 217.316 859.978C189.931 874.836 162.547 889.696 135.161 904.555C127.337 908.8 119.513 913.047 111.689 917.291C108.676 918.927 105.985 914.331 109.001 912.694Z" fill="#F27454"/>
<path d="M881.607 854.935C882.392 853.555 883.933 853.422 885.249 853.979C917.805 867.756 950.36 881.532 982.92 895.308C992.213 899.244 1001.52 903.18 1010.81 907.118C1012.16 907.682 1012.43 909.626 1011.77 910.76C1010.99 912.14 1009.45 912.272 1008.13 911.715C975.573 897.939 943.021 884.162 910.467 870.386C901.165 866.45 891.864 862.514 882.561 858.576C881.227 858.012 880.961 856.068 881.607 854.935Z" fill="#F27454"/>
<path d="M0.257324 949.268C0.614658 1028.09 51.6613 1063.55 105.596 1070.64C106.969 1064 107.683 1057.13 107.683 1050.12C107.683 994.307 62.448 949.055 6.64134 949.055C4.50134 949.055 2.36132 949.127 0.257324 949.268Z" fill="#F27454"/>
<path d="M994.867 1025.59C994.867 1041.52 998.547 1056.59 1005.13 1070C1062.67 1060.75 1115.41 1018.52 1104.73 924.931C1101.83 924.664 1098.89 924.539 1095.92 924.539C1040.12 924.539 994.867 969.773 994.867 1025.59Z" fill="#F27454"/>
<path d="M873.36 1312.59L894.746 1462.55H234.627L260.291 1312.59H873.36Z" fill="#372B47"/>
<path d="M2326.53 1508.99H30.2828C17.4601 1508.99 7.06543 1498.59 7.06543 1485.77V1485.76C7.06543 1472.95 17.4601 1462.55 30.2828 1462.55H2326.53C2339.35 1462.55 2349.75 1472.95 2349.75 1485.76V1485.77C2349.75 1498.59 2339.35 1508.99 2326.53 1508.99Z" fill="#372B47"/>
<path d="M1896.77 560.924C1884.44 571.307 1872.11 581.689 1859.79 592.072C1857.83 593.725 1860.65 596.529 1862.6 594.888C1874.93 584.505 1887.25 574.121 1899.59 563.739C1901.55 562.087 1898.72 559.281 1896.77 560.924Z" fill="#372B47"/>
<path d="M1887.4 606.867C1881.91 607.411 1876.41 607.953 1870.92 608.496C1869.85 608.603 1868.93 609.336 1868.93 610.487C1868.93 611.481 1869.85 612.585 1870.92 612.479C1876.41 611.936 1881.91 611.392 1887.4 610.849C1888.47 610.744 1889.39 610.011 1889.39 608.859C1889.39 607.864 1888.47 606.76 1887.4 606.867Z" fill="#372B47"/>
<path d="M1913.24 640.995C1899.45 636.643 1885.67 632.291 1871.87 627.94C1869.43 627.167 1868.37 631.009 1870.81 631.78C1884.6 636.131 1898.39 640.483 1912.19 644.833C1914.63 645.607 1915.68 641.764 1913.24 640.995Z" fill="#372B47"/>
</svg>
