<svg width="51" height="51" viewBox="0 0 51 51" fill="none" xmlns="http://www.w3.org/2000/svg">
<path d="M47.5835 0.833252H3.0835C2.35415 0.833252 1.65468 1.12298 1.13895 1.63871C0.623228 2.15443 0.333496 2.85391 0.333496 3.58325V48.0833C0.333496 48.4444 0.404627 48.802 0.542828 49.1356C0.681028 49.4693 0.883592 49.7724 1.13895 50.0278C1.39431 50.2832 1.69747 50.4857 2.03112 50.6239C2.36476 50.7621 2.72236 50.8333 3.0835 50.8333H27.0335V31.4583H20.5335V23.9583H27.0335V18.3333C26.8989 17.0126 27.0548 15.6786 27.4903 14.4246C27.9258 13.1706 28.6304 12.0271 29.5547 11.0743C30.4789 10.1214 31.6004 9.38235 32.8406 8.90885C34.0807 8.43534 35.4094 8.23888 36.7335 8.33325C38.6793 8.32128 40.6242 8.42144 42.5585 8.63325V15.3833H38.5835C35.4335 15.3833 34.8335 16.8833 34.8335 19.0583V23.8833H42.3335L41.3585 31.3833H34.8335V50.8333H47.5835C47.9446 50.8333 48.3022 50.7621 48.6359 50.6239C48.9695 50.4857 49.2727 50.2832 49.528 50.0278C49.7834 49.7724 49.986 49.4693 50.1242 49.1356C50.2624 48.802 50.3335 48.4444 50.3335 48.0833V3.58325C50.3335 3.22212 50.2624 2.86452 50.1242 2.53087C49.986 2.19723 49.7834 1.89407 49.528 1.63871C49.2727 1.38335 48.9695 1.18078 48.6359 1.04258C48.3022 0.904383 47.9446 0.833252 47.5835 0.833252V0.833252Z" fill="#392B43"/>
</svg>
