<svg width="51" height="51" viewBox="0 0 51 51" fill="none" xmlns="http://www.w3.org/2000/svg">
<path d="M25.3335 19.6333C24.1073 19.6333 22.9085 19.9969 21.889 20.6781C20.8694 21.3594 20.0747 22.3277 19.6054 23.4606C19.1362 24.5935 19.0134 25.8401 19.2526 27.0428C19.4919 28.2455 20.0823 29.3502 20.9494 30.2173C21.8165 31.0844 22.9213 31.6749 24.1239 31.9141C25.3266 32.1533 26.5732 32.0306 27.7061 31.5613C28.839 31.092 29.8073 30.2974 30.4886 29.2778C31.1699 28.2582 31.5335 27.0595 31.5335 25.8333C31.5335 25.0191 31.3731 24.2128 31.0616 23.4606C30.75 22.7084 30.2933 22.0249 29.7176 21.4492C29.1418 20.8735 28.4584 20.4168 27.7061 20.1052C26.9539 19.7936 26.1477 19.6333 25.3335 19.6333V19.6333ZM50.1585 13.5083C50.1453 11.5776 49.7898 9.66468 49.1085 7.85825C48.6067 6.5364 47.8303 5.33599 46.8305 4.33622C45.8308 3.33644 44.6303 2.56005 43.3085 2.05825C41.5021 1.37691 39.5891 1.0214 37.6585 1.00825C34.4335 0.833252 33.4835 0.833252 25.3335 0.833252C17.1835 0.833252 16.2335 0.833252 13.0085 1.00825C11.0779 1.0214 9.16492 1.37691 7.3585 2.05825C6.03665 2.56005 4.83623 3.33644 3.83646 4.33622C2.83669 5.33599 2.06029 6.5364 1.5585 7.85825C0.877156 9.66468 0.521648 11.5776 0.508496 13.5083C0.333496 16.7333 0.333496 17.6833 0.333496 25.8333C0.333496 33.9833 0.333496 34.9333 0.508496 38.1583C0.535406 40.0957 0.890432 42.0145 1.5585 43.8333C2.05807 45.1491 2.83382 46.3425 3.8335 47.3333C4.82898 48.339 6.03197 49.1154 7.3585 49.6083C9.16492 50.2896 11.0779 50.6451 13.0085 50.6583C16.2335 50.8333 17.1835 50.8333 25.3335 50.8333C33.4835 50.8333 34.4335 50.8333 37.6585 50.6583C39.5891 50.6451 41.5021 50.2896 43.3085 49.6083C44.635 49.1154 45.838 48.339 46.8335 47.3333C47.8332 46.3425 48.6089 45.1491 49.1085 43.8333C49.7892 42.018 50.1446 40.0969 50.1585 38.1583C50.3335 34.9333 50.3335 33.9833 50.3335 25.8333C50.3335 17.6833 50.3335 16.7333 50.1585 13.5083V13.5083ZM43.8085 33.5083C43.7283 35.051 43.399 36.5706 42.8335 38.0083C42.3482 39.2075 41.6267 40.2968 40.7119 41.2116C39.7971 42.1264 38.7077 42.8479 37.5085 43.3333C36.0573 43.8672 34.5292 44.1627 32.9835 44.2083C31.0085 44.2083 30.4835 44.2083 25.3335 44.2083C20.1835 44.2083 19.6585 44.2083 17.6835 44.2083C16.1378 44.1627 14.6097 43.8672 13.1585 43.3333C11.9188 42.8725 10.7992 42.1376 9.8835 41.1833C8.97766 40.2864 8.27811 39.2029 7.8335 38.0083C7.29739 36.5585 7.01001 35.0287 6.9835 33.4833C6.9835 31.5083 6.9835 30.9833 6.9835 25.8333C6.9835 20.6833 6.9835 20.1583 6.9835 18.1833C7.01001 16.6378 7.29739 15.108 7.8335 13.6583C8.2942 12.4185 9.02918 11.2989 9.9835 10.3833C10.8843 9.48231 11.9667 8.78349 13.1585 8.33325C14.6097 7.79927 16.1378 7.50378 17.6835 7.45825V7.45825C19.6585 7.45825 20.1835 7.45825 25.3335 7.45825C30.4835 7.45825 31.0085 7.45825 32.9835 7.45825C34.5292 7.50378 36.0573 7.79927 37.5085 8.33325C38.7482 8.79396 39.8678 9.52894 40.7835 10.4833C41.6893 11.3801 42.3889 12.4636 42.8335 13.6583C43.3675 15.1095 43.663 16.6376 43.7085 18.1833C43.7085 20.1583 43.7085 20.6833 43.7085 25.8333C43.7085 30.9833 43.8835 31.5083 43.8085 33.4833V33.5083ZM39.8085 14.9083C39.5108 14.1007 39.0415 13.3674 38.433 12.7588C37.8244 12.1502 37.091 11.6809 36.2835 11.3833C35.1747 10.9989 34.0069 10.8127 32.8335 10.8333C30.8835 10.8333 30.3335 10.8333 25.3335 10.8333C20.3335 10.8333 19.7835 10.8333 17.8335 10.8333C16.6542 10.8448 15.4862 11.0648 14.3835 11.4833C13.5883 11.7674 12.8627 12.2175 12.255 12.8038C11.6472 13.39 11.1711 14.0988 10.8585 14.8833C10.4954 15.9967 10.3181 17.1622 10.3335 18.3333C10.3335 20.2833 10.3335 20.8333 10.3335 25.8333C10.3335 30.8333 10.3335 31.3833 10.3335 33.3333C10.3583 34.5112 10.5779 35.677 10.9835 36.7832C11.2812 37.5908 11.7505 38.3241 12.359 38.9327C12.9676 39.5413 13.701 40.0106 14.5085 40.3083C15.5752 40.7005 16.6976 40.92 17.8335 40.9583V40.9583C19.7835 40.9583 20.3335 40.9583 25.3335 40.9583C30.3335 40.9583 30.8835 40.9583 32.8335 40.9583C34.0128 40.9467 35.1808 40.7267 36.2835 40.3083C37.091 40.0106 37.8244 39.5413 38.433 38.9327C39.0415 38.3241 39.5108 37.5908 39.8085 36.7832C40.2269 35.6806 40.447 34.5126 40.4585 33.3333C40.4585 31.3833 40.4585 30.8333 40.4585 25.8333C40.4585 20.8333 40.4585 20.2833 40.4585 18.3333C40.4592 17.1527 40.2388 15.9826 39.8085 14.8833V14.9083ZM25.3335 35.3833C24.0805 35.3833 22.8399 35.1361 21.6827 34.6558C20.5254 34.1756 19.4743 33.4717 18.5894 32.5846C17.7046 31.6975 17.0036 30.6445 16.5264 29.486C16.0492 28.3275 15.8052 27.0862 15.8085 25.8333V25.8333C15.8085 23.9434 16.3692 22.096 17.4197 20.525C18.4702 18.9539 19.9632 17.7299 21.7097 17.0078C23.4562 16.2858 25.3776 16.0981 27.2308 16.4686C29.084 16.8391 30.7856 17.7512 32.1202 19.0893C33.4548 20.4274 34.3624 22.1313 34.728 23.9855C35.0937 25.8397 34.901 27.7606 34.1744 29.5052C33.4477 31.2498 32.2198 32.7396 30.646 33.786C29.0722 34.8323 27.2234 35.3882 25.3335 35.3833V35.3833ZM35.3335 18.1583C34.7809 18.0998 34.2694 17.8388 33.8977 17.4257C33.526 17.0126 33.3203 16.4765 33.3203 15.9208C33.3203 15.365 33.526 14.829 33.8977 14.4158C34.2694 14.0027 34.7809 13.7417 35.3335 13.6833V13.6833C35.8861 13.7417 36.3976 14.0027 36.7693 14.4158C37.141 14.829 37.3467 15.365 37.3467 15.9208C37.3467 16.4765 37.141 17.0126 36.7693 17.4257C36.3976 17.8388 35.8861 18.0998 35.3335 18.1583Z" fill="#fff"/>
</svg>
