<svg width="44" height="50" viewBox="0 0 44 50" fill="none" xmlns="http://www.w3.org/2000/svg">
<path d="M34.4942 7.83333C32.5988 5.66562 31.5542 2.88176 31.555 0H22.9869V34.4444C22.9208 36.3084 22.1353 38.0739 20.7957 39.3693C19.4561 40.6646 17.6671 41.3886 15.8052 41.3889C11.8678 41.3889 8.59583 38.1667 8.59583 34.1667C8.59583 29.3889 13.1988 25.8056 17.9403 27.2778V18.5C8.374 17.2222 0 24.6667 0 34.1667C0 43.4167 7.65306 50 15.7775 50C24.4843 50 31.555 42.9167 31.555 34.1667V16.6944C35.0294 19.194 39.2008 20.5351 43.4783 20.5278V11.9444C43.4783 11.9444 38.2653 12.1944 34.4942 7.83333Z" fill="#fff"/>
</svg>
